# xmcd CD database file
#
# Track frame offsets:
#	150
#	15157
#	32307
#	47537
#	59830
#	78202
#	91860
#	109715
#	125542
#	142902
#	160522
#	178780
#
# Disc length: 2620 seconds
#
# Revision: 1
# Processed by: cddbd v1.5.2PL0 Copyright (c) Steve Scherf et al.
# Submitted via: CDex 1.51
#
DISCID=840a3a0c
DTITLE=Judy Boucher - Tears On My Pillow
DYEAR=0
DGENRE=Reggae
TTITLE0=Tears On My Pillow
TTITLE1=She' Got You
TTITLE2=Loving Arms
TTITLE3=Am I That Easy To Forget
TTITLE4=I'm Gonna Stay
TTITLE5=There Are More Questions Than Answers 
TTITLE6=I Fall To Pieces
TTITLE7=Some Broken Hearts Never Mend
TTITLE8=She'll Have To Go
TTITLE9=Make The World Go Away
TTITLE10=Sweet Dreams
TTITLE11=Beneath Still Waters
EXTD=YEAR: 0
EXTT0=
EXTT1=
EXTT2=
EXTT3=
EXTT4=
EXTT5=
EXTT6=
EXTT7=
EXTT8=
EXTT9=
EXTT10=
EXTT11=
PLAYORDER=
